<?xml version="1.0" encoding="utf-8"?>
<!-- Generator: Adobe Illustrator 26.0.2, SVG Export Plug-In . SVG Version: 6.00 Build 0)  -->
<svg version="1.1" id="Layer_1" xmlns="http://www.w3.org/2000/svg" xmlns:xlink="http://www.w3.org/1999/xlink" x="0px" y="0px"
	 viewBox="0 0 1920 1080" style="enable-background:new 0 0 1920 1080;" xml:space="preserve">
<style type="text/css">
	.st0{fill:#FEFEFE;}
	.st1{fill:#ADCAF3;}
	.st2{fill:#70A3EC;}
	.st3{fill:#B9D2F5;}
	.st4{fill:#B6D0F4;}
	.st5{fill:#D8E6F9;}
	.st6{fill:#4B8BE7;}
</style>
<g>
	<g>
		<path class="st0" d="M12.09,506.01c0-303.43,0.01-606.85-0.08-910.28c0-3.52,0.44-4.73,4.46-4.73
			c629.02,0.11,1258.04,0.11,1887.06,0c4.03,0,4.45,1.22,4.45,4.73c-0.08,308.76-0.08,617.52-0.08,926.28
			c-0.51,0.34-0.98,0.28-1.39-0.17c-1.07-1.64-0.95-3.52-0.91-5.33c0.48-21.17-1.3-42.26-3.21-63.28
			c-3.93-43.17-10.74-85.9-20.54-128.17c-6.82-29.41-14.98-58.44-24.59-87.03c-11.21-33.34-24.29-65.95-39.14-97.87
			c-33.57-72.15-75.84-138.81-126.16-200.38c-30.51-37.34-63.92-71.93-99.73-104.24c-33.34-30.08-68.71-57.53-105.95-82.55
			c-29.61-19.89-60.37-37.89-92.03-54.39c-44.44-23.16-90.51-42.43-138.04-58.1c-56.47-18.61-114.24-31.8-173.28-39.24
			c-20.97-2.64-41.99-4.52-63.08-6.06c-30.45-2.23-60.94-2.6-91.36-1.55c-72.29,2.5-143.55,12.77-213.49,31.59
			c-49.66,13.36-97.93,30.55-144.83,51.68c-50.89,22.93-99.22,50.35-145.21,81.9c-30.24,20.75-59.12,43.28-86.86,67.33
			c-23.96,20.77-46.57,42.91-68.34,65.86C238.09-74.6,209.3-38.76,182.98-0.95c-30.16,43.31-56.52,88.83-79.13,136.49
			c-22.69,47.82-41.11,97.27-55.33,148.27c-12.01,43.08-20.97,86.78-26.88,131.11c-0.62,4.62-1.21,9.24-1.62,13.89
			c-0.58,1.71-0.64,3.48-0.6,5.26c-0.01,1.29-0.13,2.57-0.41,3.83c-0.59,1.72-0.62,3.51-0.56,5.31c0,1.58-0.08,3.16-0.41,4.71
			c-0.71,2.04-0.62,4.14-0.55,6.25c0,1.9-0.03,3.79-0.41,5.66c-0.72,2.08-0.66,4.24-0.57,6.4c0,2.22,0.03,4.44-0.41,6.63
			c-0.83,2.42-0.66,4.92-0.55,7.42c-0.02,2.86,0.13,5.72-0.4,8.56c-1.13,3.59-0.55,7.29-0.63,10.95c-0.01,2.02,0.13,4.06-0.92,5.91
			C13.19,506.22,12.69,506.33,12.09,506.01z"/>
		<path class="st0" d="M1907.91,568.01c0,305.13-0.01,610.27,0.09,915.4c0,3.75-0.84,4.59-4.59,4.59
			c-310.8-0.1-621.61-0.09-932.41-0.09c-0.34-0.51-0.28-0.98,0.18-1.39c1.98-1.22,4.2-1,6.33-0.9c12.51,0.62,24.98-0.54,37.42-1.22
			c21.76-1.19,43.47-3.21,65.09-6.01c40.03-5.18,79.64-12.61,118.71-22.8c51.23-13.36,100.95-30.96,149.28-52.59
			c51.56-23.08,100.44-50.9,147.01-82.78c29.86-20.44,58.34-42.67,85.76-66.3c24.26-20.92,47.06-43.36,69.08-66.54
			c30.2-31.79,57.73-65.86,83.05-101.72c31.6-44.76,59.31-91.8,82.78-141.3c23.9-50.4,43.05-102.59,57.65-156.44
			c11.09-40.92,19.36-82.39,24.89-124.4c2.43-18.47,4.43-37,5.47-55.63c0.66-11.95,1.84-23.88,1.93-35.87
			c0.01-1.33,0.09-2.67,0.89-3.84C1906.92,567.73,1907.39,567.67,1907.91,568.01z"/>
		<path class="st0" d="M949,1487.91c-310.8,0-621.61-0.01-932.41,0.09c-3.75,0-4.59-0.84-4.59-4.59
			c0.1-303.47,0.09-606.93,0.09-910.4c0.58-0.32,1.08-0.21,1.48,0.32c1.06,1.84,0.88,3.88,0.93,5.88c0.07,3.65-0.48,7.34,0.62,10.93
			c0.54,2.84,0.4,5.71,0.43,8.57c-0.1,2.78-0.36,5.56,0.52,8.28c0.39,1.92,0.43,3.86,0.44,5.8c-0.07,2.42-0.26,4.85,0.53,7.2
			c0.34,1.59,0.42,3.2,0.43,4.82c-0.06,2.1-0.15,4.2,0.55,6.23c0.34,1.55,0.41,3.12,0.43,4.7c-0.05,1.79-0.05,3.58,0.54,5.3
			c0.29,1.26,0.4,2.54,0.42,3.82c-0.02,1.77-0.01,3.54,0.58,5.24c8.05,70.83,24.26,139.77,48.04,206.93
			c11.24,31.74,24.4,62.69,38.98,93.07c20.15,42,43.45,82.15,69.57,120.67c21.15,31.19,44.16,60.95,68.86,89.44
			c14.96,17.25,30.35,34.1,46.57,50.11c52,51.31,108.87,96.5,171.12,134.89c29.25,18.04,59.28,34.62,90.3,49.35
			c44.31,21.05,90.02,38.51,137.09,52.44c36.96,10.94,74.43,19.6,112.42,25.96c22.49,3.77,45.1,6.77,67.84,8.73
			c24.54,2.12,49.08,3.96,73.72,3.91c1.49,0,3.01,0,4.33,0.9C949.29,1486.94,949.34,1487.4,949,1487.91z"/>
		<path class="st1" d="M1907.15,521.87c0.28-0.13,0.54-0.08,0.76,0.14c0,11.67,0,23.33,0,35c-0.71,0.29-1.25,0.1-1.64-0.56
			c-1.79-4.82-0.74-9.83-0.92-14.75c-0.17-4.63-0.11-9.27,0.01-13.9C1905.41,525.69,1905.15,523.42,1907.15,521.87z"/>
		<path class="st2" d="M12.09,551.01c0-7.67,0-15.33,0-23c0.66-0.3,1.18-0.14,1.58,0.46c1.5,7.36,1.51,14.71,0.01,22.07
			C13.28,551.15,12.75,551.31,12.09,551.01z"/>
		<path class="st3" d="M12.97,527.87c-0.3,0-0.59,0.05-0.88,0.14c0-7.33,0-14.67,0-22c0.3,0,0.61-0.02,0.91-0.05
			C15.67,513.27,15.72,520.57,12.97,527.87z"/>
		<path class="st4" d="M12.09,551.01c0.29,0.08,0.58,0.13,0.88,0.13c2.74,7.3,2.7,14.61,0.03,21.92c-0.3-0.04-0.61-0.06-0.91-0.05
			C12.09,565.67,12.09,558.34,12.09,551.01z"/>
		<path class="st5" d="M949,1487.91c-0.01-0.28-0.02-0.56-0.04-0.84c1.43-1.73,3.49-1.86,5.4-1.69c5.56,0.51,11.42-1.73,16.68,1.69
			c-0.02,0.28-0.03,0.56-0.04,0.84C963.67,1487.91,956.33,1487.91,949,1487.91z"/>
		<path class="st5" d="M1907.07,557.07c0.28,0.02,0.56,0,0.84-0.06c0,3.67,0,7.33,0,11l-0.42,0.05l-0.42,0
			C1904.61,564.39,1904.61,560.73,1907.07,557.07z"/>
		<path class="st6" d="M1907.07,557.07c0,3.66,0,7.32,0,10.98c-1.07,38.62-4.51,77.04-10.36,115.21
			c-5.79,37.8-13.79,75.14-24.1,111.99c-10.44,37.35-23.1,73.92-38.04,109.68c-18.36,43.94-39.97,86.27-64.79,126.93
			c-28.75,47.1-61.21,91.5-97.68,132.9c-47.59,54.02-100.49,102.24-159,144.26c-68.33,49.07-141.78,88.54-220.57,118.09
			c-55.9,20.97-113.26,36.47-172.08,46.53c-32.62,5.58-65.47,9.48-98.55,11.43c-16.95,1-33.89,1.79-50.86,1.99
			c-7.36,0-14.72,0-22.08,0c-22.8-0.14-45.56-1.38-68.29-3.18c-23.06-1.82-46.02-4.56-68.85-8.18
			c-31.35-4.98-62.41-11.41-93.12-19.52c-41.36-10.92-81.8-24.52-121.34-40.85c-66.99-27.67-129.85-62.82-188.79-104.94
			c-38.08-27.21-73.82-57.26-107.55-89.73c-26.9-25.89-51.88-53.52-75.73-82.17c-14.98-18-28.92-36.84-42.33-56.07
			c-24.29-34.8-46.21-71.01-65.69-108.72c-18.44-35.72-34.56-72.43-48.25-110.23c-11.87-32.77-22.06-66.03-30.22-99.91
			c-5.46-22.66-10.18-45.47-13.81-68.5c-2.35-14.96-5.2-29.86-5.92-45.04c-1.04-1.53-0.03-3.37-0.74-4.95
			c-0.09-1.35-0.17-2.7-0.26-4.05c-1.04-1.53-0.03-3.37-0.74-4.95c-0.09-1.68-0.17-3.37-0.26-5.05c-1.1-1.88,0.02-4.03-0.74-5.95
			c-0.09-1.68-0.17-3.37-0.26-5.05c-1.14-2.22,0.05-4.69-0.74-6.95c-0.09-2.02-0.17-4.03-0.26-6.05c-1.15-2.57,0.06-5.35-0.74-7.95
			c-0.09-3.02-0.17-6.03-0.26-9.05c-1.21-3.58,0.11-7.34-0.74-10.95c-0.11-2.01-0.23-4.02-0.34-6.02
			c-0.01-7.31-0.02-14.61-0.03-21.92c0-7.76,0-15.51-0.01-23.27c0.01-7.3,0.02-14.61,0.03-21.91c0.12-2.01,0.23-4.02,0.35-6.03
			c0.85-3.61-0.48-7.36,0.74-10.94c0.09-3.02,0.18-6.04,0.26-9.06c0.79-2.26-0.4-4.72,0.74-6.94c0.09-2.35,0.18-4.71,0.26-7.06
			c0.75-1.92-0.36-4.07,0.74-5.94c0.09-2.02,0.18-4.04,0.26-6.06c0.75-1.92-0.36-4.07,0.74-5.94c0.09-1.69,0.18-3.37,0.26-5.06
			c0.71-1.58-0.31-3.41,0.74-4.94c0.09-1.35,0.18-2.7,0.26-4.06c0.71-1.58-0.31-3.41,0.74-4.94c0.09-12.27,2.53-24.29,4.35-36.32
			c2.36-15.55,5.28-31.04,8.54-46.46c4.56-21.53,9.6-42.93,15.54-64.1c14.32-51.03,33.14-100.39,55.84-148.27
			C139.69,57.2,185.57-13.28,240.8-77.6c47.45-55.26,100.58-104.51,159.39-147.52c57.94-42.38,119.85-77.82,185.85-106.21
			c57.14-24.58,116.14-43.18,176.91-56.17c36.59-7.82,73.57-13.17,110.85-16.56c39.51-3.6,79.09-4.73,118.7-3.4
			c45.25,1.52,90.18,6.26,134.77,14.26c47.67,8.55,94.44,20.52,140.23,36.26c65.48,22.51,127.74,51.86,186.82,88.03
			c54.96,33.65,105.92,72.51,152.97,116.47c41.92,39.17,79.99,81.84,114.13,127.98c36.61,49.48,68.3,101.94,94.71,157.56
			c14.49,30.51,27.27,61.71,38.46,93.59c18.54,52.82,32.12,106.88,40.98,162.12c5.35,33.34,8.88,66.9,10.56,100.65
			c0.54,10.81,0.58,21.62,1.01,32.43C1907.12,533.61,1907.09,545.34,1907.07,557.07z"/>
		<path class="st6" d="M14.08,488.99c-0.38,3.64,0.88,7.38-0.74,10.94C13.22,496.25,12.9,492.57,14.08,488.99z"/>
		<path class="st6" d="M15.08,472.99c-0.29,2.31,0.73,4.76-0.74,6.94C14.29,477.58,14.01,475.21,15.08,472.99z"/>
		<path class="st6" d="M17.08,447.99c-0.25,1.98,0.66,4.1-0.74,5.94C16.21,451.9,16.03,449.87,17.08,447.99z"/>
		<path class="st6" d="M16.08,459.99c-0.25,1.98,0.66,4.1-0.74,5.94C15.21,463.9,15.03,461.87,16.08,459.99z"/>
		<path class="st6" d="M19.08,428.99c-0.19,1.66,0.56,3.45-0.74,4.94C18.29,432.24,18.1,430.53,19.08,428.99z"/>
		<path class="st6" d="M18.08,437.99c-0.19,1.66,0.56,3.45-0.74,4.94C17.29,441.24,17.1,439.53,18.08,437.99z"/>
		<path class="st6" d="M13.35,579.08c1.61,3.56,0.35,7.31,0.74,10.95C12.9,586.44,13.22,582.76,13.35,579.08z"/>
		<path class="st6" d="M14.35,599.08c1.52,2.53,0.41,5.31,0.74,7.95C14.03,604.45,14.18,601.77,14.35,599.08z"/>
		<path class="st6" d="M15.35,613.08c1.46,2.19,0.44,4.64,0.74,6.95C15.01,617.8,15.29,615.43,15.35,613.08z"/>
		<path class="st6" d="M16.35,625.08c1.39,1.84,0.49,3.97,0.74,5.95C16.03,629.14,16.21,627.11,16.35,625.08z"/>
		<path class="st6" d="M17.35,636.07c1.29,1.49,0.55,3.29,0.74,4.95C17.1,639.48,17.29,637.77,17.35,636.07z"/>
		<path class="st6" d="M18.35,645.07c1.29,1.49,0.55,3.29,0.74,4.95C18.1,648.48,18.29,646.77,18.35,645.07z"/>
		<path class="st0" d="M1151.94,453.09c19.23-17.09,39.22-30.94,61.28-41.74c32.5-15.91,66.74-24.8,102.95-26.58
			c58.95-2.9,112.89,12.14,161.57,45.19c46.88,31.82,79.96,74.73,99.37,128.02c8.8,24.17,13.7,49.1,15.11,74.84
			c2.98,54.54-9.81,105.02-37.95,151.71c-19.86,32.94-45.96,60.07-77.82,81.42c-36.49,24.44-76.67,38.96-120.56,43.29
			c-37.46,3.69-74-0.24-109.61-12.1c-36.91-12.29-69.51-31.89-97.77-58.81c-31.65-30.14-54.55-65.8-68.49-107.12
			c-8.33-24.69-13-50.11-13.22-76.29c-1.37-162.79-0.18-325.58-0.67-488.37c-0.01-4.1,1.08-5.42,5.3-5.39
			c24.83,0.18,49.66,0.21,74.49-0.01c4.76-0.04,6.14,1.26,6.14,6.1c-0.14,93.16-0.1,186.31-0.1,279.47
			C1151.94,448.51,1151.94,450.29,1151.94,453.09z"/>
		<path class="st0" d="M539.78,235.04c12.16-10.78,24.94-20.65,39.15-28.71c15.34-8.7,31.07-16.43,47.65-22.47
			c18.97-6.91,38.5-11.49,58.52-13.6c31.51-3.32,62.83-1.82,93.63,5.95c38.21,9.64,72.68,26.82,103.18,51.92
			c42.71,35.16,71.62,79.39,86.76,132.49c8.74,30.66,11.22,61.98,8.63,93.81c-2.79,34.25-12.16,66.56-27.66,97.06
			c-16.92,33.3-40.2,61.51-69.27,85.02c-34.78,28.13-74.19,46.19-118.12,54.15c-40.9,7.41-81.38,5.21-121.37-6.45
			c-25.9-7.55-49.88-19.03-72.31-33.87c-10.79-7.13-20.8-15.3-31.36-24.45c0,2.55,0,4.28,0,6.01c0,93.32-0.04,186.64,0.11,279.96
			c0.01,4.87-1.28,6.06-6.07,6.01c-23.99-0.26-47.99-0.12-71.99-0.12c-7.19,0-7.19,0-7.19-6.95c0-153.48,0-306.95-0.01-460.43
			c0-2.15-0.21-4.31-0.32-6.46c-0.33-3.93-0.33-7.86,0-11.8c0.12-5.29,0.24-10.59,0.36-15.88c1.01-2.3,0.01-4.78,0.64-7.11
			c1.83-21.87,6.16-43.2,13.35-63.97c11.28-32.6,28.3-61.81,51.11-87.67c0.55-0.62,1.21-1.13,1.82-1.69c0.99-1.2,2.19-2.25,2.85-3.7
			c4.73-4.73,9.45-9.45,14.18-14.18C537.53,237.23,538.58,236.03,539.78,235.04z"/>
		<path class="st6" d="M451.77,432.12c0,3.93,0,7.86,0,11.8C450.6,439.99,450.6,436.05,451.77,432.12z"/>
		<path class="st6" d="M452.77,409.12c-0.07,2.38,0.77,4.85-0.64,7.11C452.3,413.86,451.36,411.39,452.77,409.12z"/>
		<path class="st6" d="M539.78,235.04c-0.8,1.51-1.72,2.88-3.7,2.85C536.96,236.48,537.94,235.2,539.78,235.04z"/>
		<path class="st6" d="M521.9,252.07c0.03,1.99-1.34,2.9-2.85,3.7C519.21,253.94,520.48,252.95,521.9,252.07z"/>
		<path class="st6" d="M1329.95,825.18c-98.06,1.07-176.72-79.38-178.27-174.17c-1.62-99.34,77.02-181.4,177.55-181.6
			c98.93-0.2,179.15,79.06,178.38,179.91C1506.84,747.95,1425.73,825.98,1329.95,825.18z"/>
		<path class="st6" d="M715.04,253.83c98.39-0.56,179.6,80.57,178.12,180.9c-1.39,93.87-78.1,175.98-180.17,174.99
			c-96.84-0.94-177.14-80.07-175.75-180.74C538.59,332.41,617.24,253.74,715.04,253.83z"/>
	</g>
</g>
</svg>
